<svg width="12" height="12" viewBox="0 0 12 12" fill="none" xmlns="http://www.w3.org/2000/svg">
<path d="M6.85938 9.375H7.32812C7.44531 9.375 7.5625 9.27734 7.5625 9.14062V4.92188C7.5625 4.80469 7.44531 4.6875 7.32812 4.6875H6.85938C6.72266 4.6875 6.625 4.80469 6.625 4.92188V9.14062C6.625 9.27734 6.72266 9.375 6.85938 9.375ZM10.0625 2.8125H8.44141L7.77734 1.71875C7.62109 1.46484 7.26953 1.25 6.97656 1.25H5.00391C4.71094 1.25 4.35938 1.46484 4.20312 1.71875L3.53906 2.8125H1.9375C1.76172 2.8125 1.625 2.96875 1.625 3.125V3.4375C1.625 3.61328 1.76172 3.75 1.9375 3.75H2.25V10.3125C2.25 10.8398 2.66016 11.25 3.1875 11.25H8.8125C9.32031 11.25 9.75 10.8398 9.75 10.3125V3.75H10.0625C10.2188 3.75 10.375 3.61328 10.375 3.4375V3.125C10.375 2.96875 10.2188 2.8125 10.0625 2.8125ZM4.96484 2.24609C4.98438 2.22656 5.04297 2.1875 5.0625 2.1875H5.08203H6.91797C6.9375 2.1875 6.99609 2.22656 7.01562 2.24609L7.34766 2.8125H4.63281L4.96484 2.24609ZM8.8125 10.3125H3.1875V3.75H8.8125V10.3125ZM4.67188 9.375H5.14062C5.25781 9.375 5.375 9.27734 5.375 9.14062V4.92188C5.375 4.80469 5.25781 4.6875 5.14062 4.6875H4.67188C4.53516 4.6875 4.4375 4.80469 4.4375 4.92188V9.14062C4.4375 9.27734 4.53516 9.375 4.67188 9.375Z" fill="#FF0000"/>
</svg>
