<svg width="12" height="12" viewBox="0 0 12 12" fill="none" xmlns="http://www.w3.org/2000/svg">
<path d="M10.6289 2.36328L9.88672 1.62109C9.65234 1.38672 9.32031 1.25 9.00781 1.25C8.69531 1.25 8.36328 1.38672 8.12891 1.62109L6.66406 3.08594L6 3.75L1.23437 8.51562L1 10.7422C0.960937 11.0156 1.17578 11.25 1.44922 11.25C1.46875 11.25 1.48828 11.25 1.50781 11.25L3.73437 11.0156L8.5 6.25L9.16406 5.58594L10.6289 4.12109C11.1172 3.63281 11.1172 2.85156 10.6289 2.36328ZM3.30469 10.1172L1.99609 10.2539L2.13281 8.94531L6.64453 4.41406L7.25 3.80859L8.44141 5L7.83594 5.60547L3.30469 10.1172ZM9.96484 3.45703L9.10547 4.33594L7.91406 3.14453L8.79297 2.28516C8.87109 2.20703 8.96875 2.1875 9.00781 2.1875C9.04688 2.1875 9.14453 2.20703 9.22266 2.28516L9.96484 3.02734C10.082 3.14453 10.082 3.33984 9.96484 3.45703Z" fill="#FF9801"/>
</svg>
